<?xml version="1.0" standalone="no"?>
<!DOCTYPE svg PUBLIC "-//W3C//DTD SVG 20010904//EN"
 "http://www.w3.org/TR/2001/REC-SVG-20010904/DTD/svg10.dtd">
<svg version="1.0" xmlns="http://www.w3.org/2000/svg"
 width="200.000000pt" height="200.000000pt" viewBox="0 0 200.000000 200.000000"
 preserveAspectRatio="xMidYMid meet">
<metadata>
Created by potrace 1.16, written by Peter Selinger 2001-2019
</metadata>
<g transform="translate(0.000000,200.000000) scale(0.100000,-0.100000)"
fill="#000000" stroke="none">
<path d="M696 1800 c-40 -12 -67 -40 -154 -160 -42 -58 -163 -223 -269 -367
-106 -144 -193 -267 -193 -273 0 -13 510 -711 554 -758 16 -18 46 -37 66 -42
19 -5 163 -10 320 -10 255 0 289 2 325 19 33 15 66 53 190 222 82 112 209 286
283 386 l134 183 -134 182 c-74 101 -201 275 -283 387 -124 169 -157 207 -190
222 -36 17 -70 18 -330 18 -159 0 -303 -5 -319 -9z m525 -522 c106 -145 193
-270 193 -278 0 -12 -280 -403 -385 -538 -17 -22 -17 -22 -222 255 -112 153
-201 283 -198 290 14 27 405 533 412 533 4 0 94 -118 200 -262z"/>
</g>
</svg>
